<?xml version="1.0" standalone="no"?>
<!DOCTYPE svg PUBLIC "-//W3C//DTD SVG 20010904//EN"
 "http://www.w3.org/TR/2001/REC-SVG-20010904/DTD/svg10.dtd">
<svg version="1.0" xmlns="http://www.w3.org/2000/svg"
 width="512.000000pt" height="512.000000pt" viewBox="0 0 512.000000 512.000000"
 preserveAspectRatio="xMidYMid meet">

<g transform="translate(0.000000,512.000000) scale(0.100000,-0.100000)"
fill="#000000" stroke="none">
<path d="M970 4693 l0 -428 93 -60 c50 -33 217 -142 370 -243 l278 -183 -71
-76 c-211 -230 -324 -494 -339 -793 l-6 -125 -307 -3 -308 -2 0 -150 0 -150
310 0 310 0 0 -205 0 -205 -310 0 -310 0 0 -150 0 -150 308 -2 307 -3 3 -192
2 -193 -310 0 -310 0 0 -150 0 -150 343 0 342 0 52 -108 c28 -59 63 -126 77
-149 l27 -42 -265 -283 c-145 -156 -265 -287 -266 -291 -1 -5 46 -53 105 -108
l106 -99 260 280 261 279 62 -48 c220 -171 482 -261 762 -261 216 0 366 35
559 130 66 32 153 84 193 114 40 31 77 56 81 56 5 0 117 -117 251 -260 133
-143 244 -260 247 -260 8 0 213 191 213 198 0 4 -115 130 -254 280 l-255 274
41 66 c23 37 56 99 73 137 16 39 34 76 38 83 6 9 89 12 358 12 l349 0 0 150 0
150 -321 0 -321 0 6 31 c3 17 6 105 6 195 l0 164 315 0 315 0 0 150 0 150
-315 0 -315 0 0 205 0 205 315 0 315 0 0 150 0 150 -313 0 -314 0 -7 110 c-8
136 -26 232 -65 349 -60 177 -160 342 -289 473 -40 41 -62 71 -57 76 6 5 178
114 383 242 l372 234 0 428 0 428 -150 0 -150 0 -2 -347 -3 -347 -360 -228
c-198 -125 -364 -227 -369 -228 -5 0 -47 16 -95 35 -306 122 -659 119 -959 -9
l-82 -35 -354 232 -355 232 0 348 -1 347 -150 0 -150 0 0 -427z m1695 -904
c216 -26 407 -120 561 -273 171 -171 265 -383 281 -634 l6 -102 -959 2 -959 3
3 90 c7 181 55 336 155 488 152 233 402 390 679 426 92 12 133 12 233 0z
m-265 -2269 c0 -812 -2 -960 -14 -960 -8 0 -53 11 -100 25 -151 44 -274 115
-395 230 -141 134 -227 288 -278 495 -13 54 -16 159 -20 618 l-5 552 406 0
406 0 0 -960z m1108 398 c-4 -625 -3 -611 -78 -791 -110 -265 -357 -477 -646
-552 -32 -8 -64 -15 -71 -15 -11 0 -13 183 -13 960 l0 960 406 0 405 0 -3
-562z"/>
</g>
</svg>
