<svg id="svg" version="1.1" xmlns="http://www.w3.org/2000/svg" xmlns:xlink="http://www.w3.org/1999/xlink" width="400" height="400" viewBox="0, 0, 400,400"><g id="svgg"><path id="path0" d="M42.670 27.412 C 31.332 29.884,26.570 37.895,26.865 54.000 C 27.041 63.620,28.489 66.400,33.326 66.400 C 38.379 66.400,39.600 63.927,39.600 53.694 C 39.600 44.816,39.797 43.866,42.069 41.775 C 44.424 39.607,44.483 39.600,60.560 39.600 C 75.374 39.600,75.491 39.593,76.811 38.700 C 80.935 35.908,80.491 29.927,75.996 27.716 C 73.822 26.647,47.291 26.405,42.670 27.412 M98.126 27.330 C 92.825 29.285,92.257 36.444,97.201 39.000 C 99.339 40.106,115.095 39.859,116.841 38.692 C 120.906 35.976,120.432 30.010,115.969 27.727 C 113.914 26.676,100.698 26.382,98.126 27.330 M255.709 27.375 C 244.339 30.130,239.730 38.090,240.059 54.400 C 240.250 63.862,241.661 66.400,246.732 66.400 C 251.908 66.400,253.182 63.841,253.202 53.400 C 253.229 39.440,252.973 39.600,275.265 39.600 L 289.221 39.600 290.966 37.855 C 294.326 34.495,293.627 29.646,289.494 27.646 C 287.358 26.612,259.771 26.390,255.709 27.375 M311.000 27.365 C 305.990 29.595,305.632 36.535,310.401 39.000 C 311.328 39.480,313.325 39.600,320.379 39.600 L 329.198 39.600 330.795 38.157 C 334.483 34.825,333.546 29.274,328.975 27.364 C 327.112 26.585,312.749 26.587,311.000 27.365 M344.590 147.224 C 339.143 148.809,338.912 156.672,344.239 159.176 C 346.821 160.390,360.414 160.290,362.934 159.038 C 367.644 156.700,367.573 150.105,362.812 147.700 C 360.898 146.733,347.483 146.383,344.590 147.224 M130.200 147.944 C 125.100 151.094,126.275 157.911,132.200 159.552 C 134.357 160.150,146.059 160.129,148.154 159.525 C 153.590 157.955,154.646 150.890,149.878 147.982 C 147.982 146.826,132.060 146.795,130.200 147.944 M42.200 227.418 C 27.288 229.810,16.803 239.984,14.187 254.600 C 13.340 259.337,13.336 353.827,14.184 358.617 C 15.910 368.374,21.906 377.297,29.596 381.556 C 38.645 386.566,33.601 386.176,91.200 386.327 C 143.470 386.465,145.071 386.421,150.200 384.704 C 152.426 383.960,157.943 381.329,158.400 380.795 C 158.510 380.667,159.230 380.127,160.000 379.595 C 163.869 376.924,168.786 370.437,170.497 365.744 C 173.244 358.212,173.200 359.186,173.200 306.587 C 173.200 256.787,173.119 254.464,171.207 249.400 C 167.807 240.396,162.165 234.087,154.200 230.380 C 146.265 226.687,147.989 226.786,92.800 226.850 C 56.380 226.892,44.659 227.024,42.200 227.418 M254.906 240.617 C 248.052 242.462,242.399 248.158,240.612 255.017 C 239.699 258.524,239.731 274.313,240.656 276.262 C 242.711 280.592,248.588 281.244,251.794 277.499 L 253.200 275.856 253.200 268.595 C 253.200 253.061,253.002 253.200,275.044 253.200 C 287.982 253.200,288.829 253.156,290.077 252.410 C 294.623 249.696,294.340 243.132,289.572 240.701 C 287.716 239.754,258.372 239.683,254.906 240.617 M310.580 240.563 C 305.828 242.633,305.431 249.426,309.893 252.350 C 311.849 253.633,327.981 253.656,330.144 252.380 C 334.744 249.666,334.258 242.604,329.332 240.546 C 327.510 239.785,312.335 239.798,310.580 240.563 M343.295 361.029 C 338.357 363.989,339.241 371.301,344.760 373.146 C 346.955 373.879,359.839 373.743,362.131 372.962 C 367.713 371.060,368.337 363.987,363.200 360.856 C 360.860 359.430,345.743 359.562,343.295 361.029 " stroke="none" fill="#f9de38" fill-rule="evenodd"></path><path id="path1" d="M255.000 13.800 C 242.085 15.888,231.992 24.767,227.946 37.600 L 227.000 40.600 227.000 93.400 L 227.000 146.200 228.148 149.600 C 232.046 161.144,239.311 168.294,251.000 172.091 L 253.800 173.000 306.600 173.000 L 359.400 173.000 362.800 171.853 C 376.589 167.203,384.965 156.764,386.388 142.458 C 386.953 136.778,386.945 49.895,386.379 44.381 C 384.809 29.088,375.027 17.739,360.400 14.241 C 356.090 13.211,261.104 12.813,255.000 13.800 M289.494 27.646 C 293.627 29.646,294.326 34.495,290.966 37.855 L 289.221 39.600 275.265 39.600 C 252.973 39.600,253.229 39.440,253.202 53.400 C 253.182 63.841,251.908 66.400,246.732 66.400 C 241.661 66.400,240.250 63.862,240.059 54.400 C 239.730 38.090,244.339 30.130,255.709 27.375 C 259.771 26.390,287.358 26.612,289.494 27.646 M328.975 27.364 C 333.546 29.274,334.483 34.825,330.795 38.157 L 329.198 39.600 320.379 39.600 C 313.325 39.600,311.328 39.480,310.401 39.000 C 305.632 36.535,305.990 29.595,311.000 27.365 C 312.749 26.587,327.112 26.585,328.975 27.364 M362.812 147.700 C 367.573 150.105,367.644 156.700,362.934 159.038 C 360.414 160.290,346.821 160.390,344.239 159.176 C 338.912 156.672,339.143 148.809,344.590 147.224 C 347.483 146.383,360.898 146.733,362.812 147.700 " stroke="none" fill="#8b29b2" fill-rule="evenodd"></path><path id="path2" d="M41.200 227.027 C 28.555 229.549,20.054 236.602,15.196 248.600 C 13.183 253.572,13.201 253.072,13.201 306.600 C 13.201 349.718,13.284 357.000,13.807 359.505 C 16.607 372.929,26.049 382.736,39.271 385.955 C 43.268 386.928,141.365 387.316,145.523 386.375 C 149.999 385.363,151.153 385.000,153.800 383.776 C 155.340 383.064,156.960 382.182,157.400 381.816 C 158.434 380.955,157.942 381.125,155.000 382.647 C 147.413 386.571,149.007 386.479,91.200 386.327 C 33.601 386.176,38.645 386.566,29.596 381.556 C 21.906 377.297,15.910 368.374,14.184 358.617 C 13.336 353.827,13.340 259.337,14.187 254.600 C 16.549 241.403,25.622 231.542,38.600 228.065 C 42.915 226.909,47.624 226.800,93.316 226.797 C 147.207 226.794,145.972 226.728,153.583 230.048 C 164.031 234.605,171.161 244.435,172.782 256.516 C 173.343 260.695,173.356 352.332,172.797 356.671 C 171.581 366.095,165.873 376.158,159.659 379.829 C 158.346 380.604,157.861 381.517,159.121 380.842 C 163.718 378.382,169.909 369.829,171.928 363.150 C 173.596 357.632,173.600 357.479,173.592 306.776 C 173.583 250.138,173.773 253.257,169.836 245.097 C 165.126 235.336,155.862 228.694,144.354 226.829 C 140.228 226.160,44.625 226.343,41.200 227.027 M255.200 227.059 C 240.785 229.366,229.360 240.635,227.193 254.684 C 226.913 256.500,226.812 274.365,226.887 308.600 L 227.000 359.800 228.101 362.915 C 232.720 375.985,242.118 384.069,255.200 386.225 C 260.252 387.058,352.996 387.053,358.000 386.220 C 367.824 384.584,377.214 378.441,381.570 370.800 C 384.484 365.689,385.746 361.960,386.375 356.600 C 386.972 351.517,386.956 261.317,386.358 256.764 C 384.431 242.108,375.745 232.010,361.375 227.720 C 359.153 227.057,259.107 226.434,255.200 227.059 M289.572 240.701 C 294.340 243.132,294.623 249.696,290.077 252.410 C 288.829 253.156,287.982 253.200,275.044 253.200 C 253.002 253.200,253.200 253.061,253.200 268.595 L 253.200 275.856 251.794 277.499 C 248.588 281.244,242.711 280.592,240.656 276.262 C 239.731 274.313,239.699 258.524,240.612 255.017 C 242.399 248.158,248.052 242.462,254.906 240.617 C 258.372 239.683,287.716 239.754,289.572 240.701 M329.332 240.546 C 334.258 242.604,334.744 249.666,330.144 252.380 C 327.981 253.656,311.849 253.633,309.893 252.350 C 305.431 249.426,305.828 242.633,310.580 240.563 C 312.335 239.798,327.510 239.785,329.332 240.546 M363.200 360.856 C 368.337 363.987,367.713 371.060,362.131 372.962 C 359.839 373.743,346.955 373.879,344.760 373.146 C 339.241 371.301,338.357 363.989,343.295 361.029 C 345.743 359.562,360.860 359.430,363.200 360.856 " stroke="none" fill="#62a914" fill-rule="evenodd"></path><path id="path3" d="M41.800 13.804 C 30.913 15.549,21.993 22.011,17.147 31.662 C 13.068 39.788,13.199 37.738,13.207 93.477 C 13.215 143.437,13.268 145.122,15.009 150.189 C 18.647 160.778,26.237 168.226,37.200 171.964 L 40.200 172.987 90.800 173.114 C 144.067 173.248,145.047 173.221,150.298 171.435 C 160.957 167.809,168.407 160.044,171.895 148.923 L 173.000 145.400 173.000 93.600 C 173.000 35.384,173.225 39.895,169.968 32.869 C 166.686 25.792,161.660 20.570,154.968 17.286 C 146.256 13.010,149.054 13.192,92.880 13.246 C 56.057 13.281,44.261 13.410,41.800 13.804 M75.996 27.716 C 80.491 29.927,80.935 35.908,76.811 38.700 C 75.491 39.593,75.374 39.600,60.560 39.600 C 44.483 39.600,44.424 39.607,42.069 41.775 C 39.797 43.866,39.600 44.816,39.600 53.694 C 39.600 63.927,38.379 66.400,33.326 66.400 C 28.489 66.400,27.041 63.620,26.865 54.000 C 26.570 37.895,31.332 29.884,42.670 27.412 C 47.291 26.405,73.822 26.647,75.996 27.716 M115.969 27.727 C 120.432 30.010,120.906 35.976,116.841 38.692 C 115.095 39.859,99.339 40.106,97.201 39.000 C 92.257 36.444,92.825 29.285,98.126 27.330 C 100.698 26.382,113.914 26.676,115.969 27.727 M149.878 147.982 C 154.646 150.890,153.590 157.955,148.154 159.525 C 146.059 160.129,134.357 160.150,132.200 159.552 C 126.275 157.911,125.100 151.094,130.200 147.944 C 132.060 146.795,147.982 146.826,149.878 147.982 " stroke="none" fill="#04abf3" fill-rule="evenodd"></path><path id="path4" d="M36.400 0.290 C 35.410 0.378,34.429 0.619,34.220 0.825 C 34.011 1.031,33.336 1.200,32.720 1.200 C 32.104 1.200,31.600 1.380,31.600 1.600 C 31.600 1.820,31.060 2.000,30.400 2.000 C 29.740 2.000,29.200 2.180,29.200 2.400 C 29.200 2.620,28.840 2.800,28.400 2.800 C 27.960 2.800,27.600 2.980,27.600 3.200 C 27.600 3.420,27.251 3.600,26.824 3.600 C 26.397 3.600,25.936 3.780,25.800 4.000 C 25.664 4.220,25.243 4.400,24.865 4.400 C 24.486 4.400,23.917 4.760,23.600 5.200 C 23.283 5.640,22.703 6.000,22.312 6.000 C 21.920 6.000,21.600 6.180,21.600 6.400 C 21.600 6.620,21.306 6.800,20.947 6.800 C 20.588 6.800,20.003 7.133,19.647 7.541 C 19.291 7.948,18.421 8.580,17.714 8.944 C 16.048 9.802,9.802 16.048,8.944 17.714 C 8.580 18.421,7.948 19.291,7.541 19.647 C 7.133 20.003,6.800 20.588,6.800 20.947 C 6.800 21.306,6.620 21.600,6.400 21.600 C 6.180 21.600,6.000 21.920,6.000 22.312 C 6.000 22.703,5.640 23.283,5.200 23.600 C 4.760 23.917,4.400 24.486,4.400 24.865 C 4.400 25.243,4.220 25.664,4.000 25.800 C 3.780 25.936,3.600 26.397,3.600 26.824 C 3.600 27.251,3.420 27.600,3.200 27.600 C 2.980 27.600,2.800 27.960,2.800 28.400 C 2.800 28.840,2.620 29.200,2.400 29.200 C 2.180 29.200,2.000 29.740,2.000 30.400 C 2.000 31.060,1.820 31.600,1.600 31.600 C 1.380 31.600,1.200 32.104,1.200 32.720 C 1.200 33.336,0.975 34.065,0.700 34.340 C -0.034 35.073,-0.034 151.326,0.700 152.060 C 0.975 152.335,1.200 153.154,1.200 153.880 C 1.200 154.606,1.380 155.200,1.600 155.200 C 1.820 155.200,2.000 155.650,2.000 156.200 C 2.000 156.750,2.180 157.200,2.400 157.200 C 2.620 157.200,2.800 157.560,2.800 158.000 C 2.800 158.440,2.980 158.800,3.200 158.800 C 3.420 158.800,3.600 159.160,3.600 159.600 C 3.600 160.040,3.780 160.400,4.000 160.400 C 4.220 160.400,4.400 160.816,4.400 161.325 C 4.400 161.833,4.760 162.636,5.200 163.108 C 5.640 163.580,6.000 164.244,6.000 164.583 C 6.000 164.922,6.180 165.200,6.400 165.200 C 6.620 165.200,6.800 165.436,6.800 165.725 C 6.800 166.013,7.141 166.615,7.557 167.062 C 7.974 167.509,8.589 168.398,8.923 169.038 C 9.462 170.068,10.571 171.235,15.825 176.300 C 16.567 177.015,17.383 177.600,17.640 177.600 C 17.896 177.600,18.397 177.916,18.753 178.303 C 19.109 178.689,19.895 179.260,20.500 179.570 C 21.105 179.881,21.600 180.285,21.600 180.468 C 21.600 180.650,21.960 180.800,22.400 180.800 C 22.840 180.800,23.200 180.980,23.200 181.200 C 23.200 181.420,23.560 181.600,24.000 181.600 C 24.440 181.600,24.800 181.780,24.800 182.000 C 24.800 182.220,25.070 182.400,25.400 182.400 C 25.730 182.400,26.000 182.580,26.000 182.800 C 26.000 183.020,26.360 183.200,26.800 183.200 C 27.240 183.200,27.600 183.380,27.600 183.600 C 27.600 183.820,27.949 184.000,28.376 184.000 C 28.803 184.000,29.264 184.180,29.400 184.400 C 29.536 184.620,30.087 184.800,30.624 184.800 C 31.161 184.800,31.600 184.980,31.600 185.200 C 31.600 185.420,32.320 185.600,33.200 185.600 C 34.080 185.600,34.800 185.780,34.800 186.000 C 34.800 186.220,35.509 186.400,36.376 186.400 C 37.243 186.400,38.064 186.580,38.200 186.800 C 38.542 187.353,148.258 187.353,148.600 186.800 C 148.736 186.580,149.557 186.400,150.424 186.400 C 151.291 186.400,152.000 186.220,152.000 186.000 C 152.000 185.780,152.619 185.600,153.376 185.600 C 154.133 185.600,154.864 185.420,155.000 185.200 C 155.136 184.980,155.687 184.800,156.224 184.800 C 156.761 184.800,157.200 184.620,157.200 184.400 C 157.200 184.180,157.560 184.000,158.000 184.000 C 158.440 184.000,158.800 183.820,158.800 183.600 C 158.800 183.380,159.160 183.200,159.600 183.200 C 160.040 183.200,160.400 183.020,160.400 182.800 C 160.400 182.580,160.760 182.400,161.200 182.400 C 161.640 182.400,162.000 182.220,162.000 182.000 C 162.000 181.780,162.360 181.600,162.800 181.600 C 163.240 181.600,163.600 181.420,163.600 181.200 C 163.600 180.980,163.960 180.800,164.400 180.800 C 164.840 180.800,165.200 180.650,165.200 180.468 C 165.200 180.285,165.695 179.881,166.300 179.570 C 166.905 179.260,167.691 178.689,168.047 178.303 C 168.403 177.916,168.894 177.600,169.138 177.600 C 169.742 177.600,176.800 170.666,176.800 170.073 C 176.800 169.813,176.980 169.600,177.200 169.600 C 177.420 169.600,177.600 169.396,177.600 169.147 C 177.600 168.898,177.916 168.403,178.303 168.047 C 178.689 167.691,179.260 166.905,179.570 166.300 C 179.881 165.695,180.285 165.200,180.468 165.200 C 180.650 165.200,180.800 164.840,180.800 164.400 C 180.800 163.960,180.980 163.600,181.200 163.600 C 181.420 163.600,181.600 163.240,181.600 162.800 C 181.600 162.360,181.780 162.000,182.000 162.000 C 182.220 162.000,182.400 161.640,182.400 161.200 C 182.400 160.760,182.580 160.400,182.800 160.400 C 183.020 160.400,183.200 160.040,183.200 159.600 C 183.200 159.160,183.380 158.800,183.600 158.800 C 183.820 158.800,184.000 158.528,184.000 158.195 C 184.000 157.862,184.180 157.232,184.400 156.795 C 184.620 156.358,184.980 155.642,185.200 155.205 C 185.420 154.768,185.600 153.868,185.600 153.205 C 185.600 152.542,185.780 152.000,186.000 152.000 C 186.220 152.000,186.400 151.291,186.400 150.424 C 186.400 149.557,186.580 148.736,186.800 148.600 C 187.064 148.437,187.200 129.529,187.200 93.176 C 187.200 56.659,187.065 38.000,186.800 38.000 C 186.580 38.000,186.400 37.280,186.400 36.400 C 186.400 35.520,186.220 34.800,186.000 34.800 C 185.780 34.800,185.600 34.080,185.600 33.200 C 185.600 32.320,185.420 31.600,185.200 31.600 C 184.980 31.600,184.800 31.161,184.800 30.624 C 184.800 30.087,184.620 29.536,184.400 29.400 C 184.180 29.264,184.000 28.803,184.000 28.376 C 184.000 27.949,183.820 27.600,183.600 27.600 C 183.380 27.600,183.200 27.240,183.200 26.800 C 183.200 26.360,183.054 26.000,182.875 26.000 C 182.696 26.000,182.302 25.370,182.000 24.600 C 181.698 23.830,181.304 23.200,181.125 23.200 C 180.946 23.200,180.800 22.840,180.800 22.400 C 180.800 21.960,180.620 21.600,180.400 21.600 C 180.180 21.600,180.000 21.357,180.000 21.059 C 180.000 20.762,179.460 19.954,178.800 19.263 C 178.140 18.572,177.600 17.820,177.600 17.590 C 177.600 17.361,177.015 16.565,176.300 15.822 C 175.585 15.079,173.928 13.360,172.618 12.003 C 171.308 10.646,169.688 9.254,169.018 8.909 C 168.348 8.564,167.509 7.948,167.153 7.541 C 166.797 7.133,166.212 6.800,165.853 6.800 C 165.494 6.800,165.200 6.620,165.200 6.400 C 165.200 6.180,164.922 6.000,164.583 6.000 C 164.244 6.000,163.580 5.640,163.108 5.200 C 162.636 4.760,161.934 4.400,161.548 4.400 C 161.163 4.400,160.736 4.220,160.600 4.000 C 160.464 3.780,160.003 3.600,159.576 3.600 C 159.149 3.600,158.800 3.420,158.800 3.200 C 158.800 2.980,158.440 2.800,158.000 2.800 C 157.560 2.800,157.200 2.620,157.200 2.400 C 157.200 2.180,156.750 2.000,156.200 2.000 C 155.650 2.000,155.200 1.820,155.200 1.600 C 155.200 1.380,154.606 1.200,153.880 1.200 C 153.154 1.200,152.335 0.975,152.060 0.700 C 151.583 0.223,41.528 -0.168,36.400 0.290 M249.500 0.288 C 248.455 0.374,247.600 0.614,247.600 0.822 C 247.600 1.030,246.970 1.200,246.200 1.200 C 245.430 1.200,244.800 1.380,244.800 1.600 C 244.800 1.820,244.350 2.000,243.800 2.000 C 243.250 2.000,242.800 2.180,242.800 2.400 C 242.800 2.620,242.440 2.800,242.000 2.800 C 241.560 2.800,241.200 2.980,241.200 3.200 C 241.200 3.420,240.840 3.600,240.400 3.600 C 239.960 3.600,239.600 3.780,239.600 4.000 C 239.600 4.220,239.184 4.400,238.675 4.400 C 238.167 4.400,237.364 4.760,236.892 5.200 C 236.420 5.640,235.756 6.000,235.417 6.000 C 235.078 6.000,234.800 6.180,234.800 6.400 C 234.800 6.620,234.564 6.800,234.275 6.800 C 233.987 6.800,233.385 7.141,232.938 7.557 C 232.491 7.974,231.593 8.590,230.944 8.925 C 230.295 9.261,228.692 10.646,227.382 12.003 C 226.072 13.360,224.415 15.079,223.700 15.822 C 222.985 16.565,222.400 17.361,222.400 17.590 C 222.400 17.820,221.860 18.572,221.200 19.263 C 220.540 19.954,220.000 20.762,220.000 21.059 C 220.000 21.357,219.820 21.600,219.600 21.600 C 219.380 21.600,219.200 21.960,219.200 22.400 C 219.200 22.840,219.054 23.200,218.875 23.200 C 218.696 23.200,218.302 23.830,218.000 24.600 C 217.698 25.370,217.304 26.000,217.125 26.000 C 216.946 26.000,216.800 26.360,216.800 26.800 C 216.800 27.240,216.620 27.600,216.400 27.600 C 216.180 27.600,216.000 27.949,216.000 28.376 C 216.000 28.803,215.820 29.264,215.600 29.400 C 215.380 29.536,215.200 30.087,215.200 30.624 C 215.200 31.161,215.020 31.600,214.800 31.600 C 214.580 31.600,214.400 32.320,214.400 33.200 C 214.400 34.080,214.220 34.800,214.000 34.800 C 213.780 34.800,213.600 35.520,213.600 36.400 C 213.600 37.280,213.420 38.000,213.200 38.000 C 212.935 38.000,212.800 56.659,212.800 93.176 C 212.800 129.529,212.936 148.437,213.200 148.600 C 213.420 148.736,213.600 149.557,213.600 150.424 C 213.600 151.291,213.780 152.000,214.000 152.000 C 214.220 152.000,214.400 152.542,214.400 153.205 C 214.400 153.868,214.580 154.768,214.800 155.205 C 215.020 155.642,215.380 156.358,215.600 156.795 C 215.820 157.232,216.000 157.862,216.000 158.195 C 216.000 158.528,216.180 158.800,216.400 158.800 C 216.620 158.800,216.800 159.160,216.800 159.600 C 216.800 160.040,216.980 160.400,217.200 160.400 C 217.420 160.400,217.600 160.760,217.600 161.200 C 217.600 161.640,217.780 162.000,218.000 162.000 C 218.220 162.000,218.400 162.360,218.400 162.800 C 218.400 163.240,218.580 163.600,218.800 163.600 C 219.020 163.600,219.200 163.960,219.200 164.400 C 219.200 164.840,219.350 165.200,219.532 165.200 C 219.715 165.200,220.119 165.695,220.430 166.300 C 220.740 166.905,221.311 167.691,221.697 168.047 C 222.084 168.403,222.400 168.886,222.400 169.122 C 222.400 169.712,229.354 176.800,229.933 176.800 C 230.190 176.800,230.400 176.980,230.400 177.200 C 230.400 177.420,230.630 177.600,230.912 177.600 C 231.193 177.600,231.683 177.960,232.000 178.400 C 232.317 178.840,232.857 179.200,233.200 179.200 C 233.543 179.200,234.083 179.560,234.400 180.000 C 234.717 180.440,235.297 180.800,235.688 180.800 C 236.080 180.800,236.400 180.980,236.400 181.200 C 236.400 181.420,236.760 181.600,237.200 181.600 C 237.640 181.600,238.000 181.780,238.000 182.000 C 238.000 182.220,238.360 182.400,238.800 182.400 C 239.240 182.400,239.600 182.580,239.600 182.800 C 239.600 183.020,239.960 183.200,240.400 183.200 C 240.840 183.200,241.200 183.380,241.200 183.600 C 241.200 183.820,241.472 184.000,241.805 184.000 C 242.138 184.000,242.768 184.180,243.205 184.400 C 243.642 184.620,244.358 184.980,244.795 185.200 C 245.232 185.420,246.132 185.600,246.795 185.600 C 247.458 185.600,248.000 185.780,248.000 186.000 C 248.000 186.220,248.709 186.400,249.576 186.400 C 250.443 186.400,251.264 186.580,251.400 186.800 C 251.742 187.353,361.458 187.353,361.800 186.800 C 361.936 186.580,362.757 186.400,363.624 186.400 C 364.491 186.400,365.200 186.220,365.200 186.000 C 365.200 185.780,365.920 185.600,366.800 185.600 C 367.680 185.600,368.400 185.420,368.400 185.200 C 368.400 184.980,368.839 184.800,369.376 184.800 C 369.913 184.800,370.464 184.620,370.600 184.400 C 370.736 184.180,371.197 184.000,371.624 184.000 C 372.051 184.000,372.400 183.820,372.400 183.600 C 372.400 183.380,372.760 183.200,373.200 183.200 C 373.640 183.200,374.000 183.054,374.000 182.875 C 374.000 182.696,374.630 182.302,375.400 182.000 C 376.170 181.698,376.800 181.304,376.800 181.125 C 376.800 180.946,377.160 180.800,377.600 180.800 C 378.040 180.800,378.400 180.620,378.400 180.400 C 378.400 180.180,378.643 180.000,378.941 180.000 C 379.238 180.000,380.046 179.460,380.737 178.800 C 381.428 178.140,382.167 177.600,382.381 177.600 C 383.226 177.600,390.158 170.771,391.072 169.038 C 391.409 168.398,392.026 167.509,392.443 167.062 C 392.859 166.615,393.200 166.013,393.200 165.725 C 393.200 165.436,393.380 165.200,393.600 165.200 C 393.820 165.200,394.000 164.855,394.000 164.433 C 394.000 164.012,394.135 163.607,394.300 163.533 C 394.732 163.341,396.400 160.028,396.400 159.362 C 396.400 159.053,396.580 158.800,396.800 158.800 C 397.020 158.800,397.200 158.440,397.200 158.000 C 397.200 157.560,397.380 157.200,397.600 157.200 C 397.820 157.200,398.000 156.750,398.000 156.200 C 398.000 155.650,398.180 155.200,398.400 155.200 C 398.620 155.200,398.800 154.606,398.800 153.880 C 398.800 153.154,399.025 152.335,399.300 152.060 C 399.695 151.665,399.800 139.355,399.800 93.200 C 399.800 47.045,399.695 34.735,399.300 34.340 C 399.025 34.065,398.800 33.336,398.800 32.720 C 398.800 32.104,398.620 31.600,398.400 31.600 C 398.180 31.600,398.000 31.060,398.000 30.400 C 398.000 29.740,397.820 29.200,397.600 29.200 C 397.380 29.200,397.200 28.840,397.200 28.400 C 397.200 27.960,397.020 27.600,396.800 27.600 C 396.580 27.600,396.400 27.251,396.400 26.824 C 396.400 26.397,396.220 25.936,396.000 25.800 C 395.780 25.664,395.600 25.243,395.600 24.865 C 395.600 24.486,395.240 23.917,394.800 23.600 C 394.360 23.283,394.000 22.703,394.000 22.312 C 394.000 21.920,393.820 21.600,393.600 21.600 C 393.380 21.600,393.200 21.306,393.200 20.947 C 393.200 20.588,392.867 20.003,392.459 19.647 C 392.052 19.291,391.420 18.421,391.056 17.714 C 390.198 16.048,383.952 9.802,382.286 8.944 C 381.579 8.580,380.709 7.948,380.353 7.541 C 379.997 7.133,379.412 6.800,379.053 6.800 C 378.694 6.800,378.400 6.620,378.400 6.400 C 378.400 6.180,378.080 6.000,377.688 6.000 C 377.297 6.000,376.717 5.640,376.400 5.200 C 376.083 4.760,375.503 4.400,375.112 4.400 C 374.720 4.400,374.400 4.220,374.400 4.000 C 374.400 3.780,373.950 3.600,373.400 3.600 C 372.850 3.600,372.400 3.420,372.400 3.200 C 372.400 2.980,372.040 2.800,371.600 2.800 C 371.160 2.800,370.800 2.620,370.800 2.400 C 370.800 2.180,370.260 2.000,369.600 2.000 C 368.940 2.000,368.400 1.820,368.400 1.600 C 368.400 1.380,367.896 1.200,367.280 1.200 C 366.664 1.200,365.935 0.975,365.660 0.700 C 365.186 0.225,255.032 -0.165,249.500 0.288 M145.080 14.015 C 158.909 16.622,168.701 25.625,172.256 39.000 C 172.963 41.661,173.000 44.367,173.000 93.600 L 173.000 145.400 171.895 148.923 C 168.407 160.044,160.957 167.809,150.298 171.435 C 145.047 173.221,144.067 173.248,90.800 173.114 L 40.200 172.987 37.200 171.964 C 26.237 168.226,18.647 160.778,15.009 150.189 C 13.268 145.122,13.215 143.437,13.207 93.477 C 13.199 37.738,13.068 39.788,17.147 31.662 C 21.993 22.011,30.913 15.549,41.800 13.804 C 48.003 12.810,139.683 12.997,145.080 14.015 M360.400 14.241 C 375.027 17.739,384.809 29.088,386.379 44.381 C 386.945 49.895,386.953 136.778,386.388 142.458 C 384.965 156.764,376.589 167.203,362.800 171.853 L 359.400 173.000 306.600 173.000 L 253.800 173.000 251.000 172.091 C 239.311 168.294,232.046 161.144,228.148 149.600 L 227.000 146.200 227.000 93.400 L 227.000 40.600 227.946 37.600 C 231.992 24.767,242.085 15.888,255.000 13.800 C 261.104 12.813,356.090 13.211,360.400 14.241 M38.000 213.200 C 38.000 213.420,37.280 213.600,36.400 213.600 C 35.520 213.600,34.800 213.780,34.800 214.000 C 34.800 214.220,34.080 214.400,33.200 214.400 C 32.320 214.400,31.600 214.580,31.600 214.800 C 31.600 215.020,31.161 215.200,30.624 215.200 C 30.087 215.200,29.536 215.380,29.400 215.600 C 29.264 215.820,28.803 216.000,28.376 216.000 C 27.949 216.000,27.600 216.180,27.600 216.400 C 27.600 216.620,27.240 216.800,26.800 216.800 C 26.360 216.800,26.000 216.946,26.000 217.125 C 26.000 217.304,25.370 217.698,24.600 218.000 C 23.830 218.302,23.200 218.696,23.200 218.875 C 23.200 219.054,22.840 219.200,22.400 219.200 C 21.960 219.200,21.600 219.380,21.600 219.600 C 21.600 219.820,21.357 220.000,21.059 220.000 C 20.762 220.000,19.954 220.540,19.263 221.200 C 18.572 221.860,17.820 222.400,17.590 222.400 C 17.361 222.400,16.565 222.985,15.822 223.700 C 15.079 224.415,13.360 226.072,12.003 227.382 C 10.646 228.692,9.261 230.295,8.925 230.944 C 8.590 231.593,7.974 232.491,7.557 232.938 C 7.141 233.385,6.800 233.987,6.800 234.275 C 6.800 234.564,6.620 234.800,6.400 234.800 C 6.180 234.800,6.000 235.078,6.000 235.417 C 6.000 235.756,5.640 236.420,5.200 236.892 C 4.760 237.364,4.400 238.066,4.400 238.452 C 4.400 238.837,4.220 239.264,4.000 239.400 C 3.780 239.536,3.600 239.997,3.600 240.424 C 3.600 240.851,3.420 241.200,3.200 241.200 C 2.980 241.200,2.800 241.560,2.800 242.000 C 2.800 242.440,2.620 242.800,2.400 242.800 C 2.180 242.800,2.000 243.250,2.000 243.800 C 2.000 244.350,1.820 244.800,1.600 244.800 C 1.380 244.800,1.200 245.415,1.200 246.167 C 1.200 246.918,0.975 247.608,0.700 247.700 C -0.034 247.945,-0.034 364.926,0.700 365.660 C 0.975 365.935,1.200 366.664,1.200 367.280 C 1.200 367.896,1.380 368.400,1.600 368.400 C 1.820 368.400,2.000 368.940,2.000 369.600 C 2.000 370.260,2.180 370.800,2.400 370.800 C 2.620 370.800,2.800 371.160,2.800 371.600 C 2.800 372.040,2.980 372.400,3.200 372.400 C 3.420 372.400,3.600 372.749,3.600 373.176 C 3.600 373.603,3.780 374.064,4.000 374.200 C 4.220 374.336,4.400 374.757,4.400 375.135 C 4.400 375.514,4.760 376.083,5.200 376.400 C 5.640 376.717,6.000 377.297,6.000 377.688 C 6.000 378.080,6.180 378.400,6.400 378.400 C 6.620 378.400,6.800 378.694,6.800 379.053 C 6.800 379.412,7.133 379.997,7.541 380.353 C 7.948 380.709,8.580 381.579,8.944 382.286 C 9.802 383.952,16.048 390.198,17.714 391.056 C 18.421 391.420,19.291 392.052,19.647 392.459 C 20.003 392.867,20.588 393.200,20.947 393.200 C 21.306 393.200,21.600 393.380,21.600 393.600 C 21.600 393.820,21.878 394.000,22.217 394.000 C 22.556 394.000,23.220 394.360,23.692 394.800 C 24.164 395.240,24.877 395.600,25.275 395.600 C 25.674 395.600,26.000 395.780,26.000 396.000 C 26.000 396.220,26.360 396.400,26.800 396.400 C 27.240 396.400,27.600 396.580,27.600 396.800 C 27.600 397.020,27.960 397.200,28.400 397.200 C 28.840 397.200,29.200 397.380,29.200 397.600 C 29.200 397.820,29.740 398.000,30.400 398.000 C 31.060 398.000,31.600 398.180,31.600 398.400 C 31.600 398.620,32.104 398.800,32.720 398.800 C 33.336 398.800,34.065 399.025,34.340 399.300 C 34.735 399.695,47.045 399.800,93.200 399.800 C 139.355 399.800,151.665 399.695,152.060 399.300 C 152.335 399.025,153.154 398.800,153.880 398.800 C 154.606 398.800,155.200 398.620,155.200 398.400 C 155.200 398.180,155.650 398.000,156.200 398.000 C 156.750 398.000,157.200 397.820,157.200 397.600 C 157.200 397.380,157.560 397.200,158.000 397.200 C 158.440 397.200,158.800 397.020,158.800 396.800 C 158.800 396.580,159.149 396.400,159.576 396.400 C 160.003 396.400,160.464 396.220,160.600 396.000 C 160.736 395.780,161.163 395.600,161.548 395.600 C 161.934 395.600,162.636 395.240,163.108 394.800 C 163.580 394.360,164.244 394.000,164.583 394.000 C 164.922 394.000,165.200 393.820,165.200 393.600 C 165.200 393.380,165.436 393.200,165.725 393.200 C 166.013 393.200,166.615 392.859,167.062 392.443 C 167.509 392.026,168.398 391.409,169.038 391.072 C 170.771 390.158,177.600 383.226,177.600 382.381 C 177.600 382.167,178.140 381.428,178.800 380.737 C 179.460 380.046,180.000 379.238,180.000 378.941 C 180.000 378.643,180.180 378.400,180.400 378.400 C 180.620 378.400,180.800 378.040,180.800 377.600 C 180.800 377.160,180.980 376.800,181.200 376.800 C 181.420 376.800,181.600 376.440,181.600 376.000 C 181.600 375.560,181.780 375.200,182.000 375.200 C 182.220 375.200,182.400 374.930,182.400 374.600 C 182.400 374.270,182.580 374.000,182.800 374.000 C 183.020 374.000,183.200 373.640,183.200 373.200 C 183.200 372.760,183.380 372.400,183.600 372.400 C 183.820 372.400,184.000 372.051,184.000 371.624 C 184.000 371.197,184.180 370.736,184.400 370.600 C 184.620 370.464,184.800 369.913,184.800 369.376 C 184.800 368.839,184.980 368.400,185.200 368.400 C 185.420 368.400,185.600 367.680,185.600 366.800 C 185.600 365.920,185.780 365.200,186.000 365.200 C 186.220 365.200,186.400 364.491,186.400 363.624 C 186.400 362.757,186.580 361.936,186.800 361.800 C 187.064 361.637,187.200 342.804,187.200 306.600 C 187.200 270.396,187.064 251.563,186.800 251.400 C 186.580 251.264,186.400 250.443,186.400 249.576 C 186.400 248.709,186.220 248.000,186.000 248.000 C 185.780 248.000,185.600 247.381,185.600 246.624 C 185.600 245.867,185.420 245.136,185.200 245.000 C 184.980 244.864,184.800 244.313,184.800 243.776 C 184.800 243.239,184.620 242.800,184.400 242.800 C 184.180 242.800,184.000 242.440,184.000 242.000 C 184.000 241.560,183.820 241.200,183.600 241.200 C 183.380 241.200,183.200 240.840,183.200 240.400 C 183.200 239.960,183.020 239.600,182.800 239.600 C 182.580 239.600,182.400 239.240,182.400 238.800 C 182.400 238.360,182.220 238.000,182.000 238.000 C 181.780 238.000,181.600 237.640,181.600 237.200 C 181.600 236.760,181.420 236.400,181.200 236.400 C 180.980 236.400,180.800 236.040,180.800 235.600 C 180.800 235.160,180.650 234.800,180.468 234.800 C 180.285 234.800,179.881 234.305,179.570 233.700 C 179.260 233.095,178.689 232.309,178.303 231.953 C 177.916 231.597,177.600 231.095,177.600 230.836 C 177.600 230.197,169.736 222.400,169.091 222.400 C 168.808 222.400,168.317 222.040,168.000 221.600 C 167.683 221.160,167.193 220.800,166.912 220.800 C 166.630 220.800,166.400 220.620,166.400 220.400 C 166.400 220.180,166.130 220.000,165.800 220.000 C 165.470 220.000,165.200 219.820,165.200 219.600 C 165.200 219.380,164.840 219.200,164.400 219.200 C 163.960 219.200,163.600 219.020,163.600 218.800 C 163.600 218.580,163.240 218.400,162.800 218.400 C 162.360 218.400,162.000 218.220,162.000 218.000 C 162.000 217.780,161.640 217.600,161.200 217.600 C 160.760 217.600,160.400 217.420,160.400 217.200 C 160.400 216.980,160.040 216.800,159.600 216.800 C 159.160 216.800,158.800 216.620,158.800 216.400 C 158.800 216.180,158.440 216.000,158.000 216.000 C 157.560 216.000,157.200 215.820,157.200 215.600 C 157.200 215.380,156.761 215.200,156.224 215.200 C 155.687 215.200,155.136 215.020,155.000 214.800 C 154.864 214.580,154.133 214.400,153.376 214.400 C 152.619 214.400,152.000 214.220,152.000 214.000 C 152.000 213.780,151.291 213.600,150.424 213.600 C 149.557 213.600,148.736 213.420,148.600 213.200 C 148.258 212.646,38.000 212.646,38.000 213.200 M251.400 213.200 C 251.264 213.420,250.443 213.600,249.576 213.600 C 248.709 213.600,248.000 213.780,248.000 214.000 C 248.000 214.220,247.458 214.400,246.795 214.400 C 246.132 214.400,245.187 214.608,244.695 214.862 C 242.818 215.833,242.393 216.000,241.805 216.000 C 241.472 216.000,241.200 216.180,241.200 216.400 C 241.200 216.620,240.840 216.800,240.400 216.800 C 239.960 216.800,239.600 216.980,239.600 217.200 C 239.600 217.420,239.240 217.600,238.800 217.600 C 238.360 217.600,238.000 217.780,238.000 218.000 C 238.000 218.220,237.640 218.400,237.200 218.400 C 236.760 218.400,236.400 218.580,236.400 218.800 C 236.400 219.020,236.040 219.200,235.600 219.200 C 235.160 219.200,234.800 219.350,234.800 219.532 C 234.800 219.715,234.305 220.119,233.700 220.430 C 233.095 220.740,232.309 221.311,231.953 221.697 C 231.597 222.084,231.102 222.400,230.853 222.400 C 230.604 222.400,228.600 224.200,226.400 226.400 C 224.200 228.600,222.400 230.604,222.400 230.853 C 222.400 231.102,222.084 231.597,221.697 231.953 C 221.311 232.309,220.740 233.095,220.430 233.700 C 220.119 234.305,219.715 234.800,219.532 234.800 C 219.350 234.800,219.200 235.160,219.200 235.600 C 219.200 236.040,219.020 236.400,218.800 236.400 C 218.580 236.400,218.400 236.760,218.400 237.200 C 218.400 237.640,218.220 238.000,218.000 238.000 C 217.780 238.000,217.600 238.360,217.600 238.800 C 217.600 239.240,217.420 239.600,217.200 239.600 C 216.980 239.600,216.800 239.960,216.800 240.400 C 216.800 240.840,216.620 241.200,216.400 241.200 C 216.180 241.200,216.000 241.560,216.000 242.000 C 216.000 242.440,215.820 242.800,215.600 242.800 C 215.380 242.800,215.200 243.239,215.200 243.776 C 215.200 244.313,215.020 244.864,214.800 245.000 C 214.580 245.136,214.400 245.867,214.400 246.624 C 214.400 247.381,214.220 248.000,214.000 248.000 C 213.780 248.000,213.600 248.709,213.600 249.576 C 213.600 250.443,213.420 251.264,213.200 251.400 C 212.936 251.563,212.800 270.471,212.800 306.824 C 212.800 343.341,212.935 362.000,213.200 362.000 C 213.420 362.000,213.600 362.720,213.600 363.600 C 213.600 364.480,213.780 365.200,214.000 365.200 C 214.220 365.200,214.400 365.920,214.400 366.800 C 214.400 367.680,214.580 368.400,214.800 368.400 C 215.020 368.400,215.200 368.839,215.200 369.376 C 215.200 369.913,215.380 370.464,215.600 370.600 C 215.820 370.736,216.000 371.197,216.000 371.624 C 216.000 372.051,216.180 372.400,216.400 372.400 C 216.620 372.400,216.800 372.760,216.800 373.200 C 216.800 373.640,216.946 374.000,217.125 374.000 C 217.304 374.000,217.698 374.630,218.000 375.400 C 218.302 376.170,218.696 376.800,218.875 376.800 C 219.054 376.800,219.200 377.160,219.200 377.600 C 219.200 378.040,219.380 378.400,219.600 378.400 C 219.820 378.400,220.000 378.643,220.000 378.941 C 220.000 379.238,220.540 380.046,221.200 380.737 C 221.860 381.428,222.400 382.180,222.400 382.410 C 222.400 382.639,222.985 383.436,223.700 384.181 C 228.716 389.408,230.184 390.779,231.222 391.209 C 231.870 391.478,232.400 391.855,232.400 392.049 C 232.400 392.242,232.670 392.400,233.000 392.400 C 233.330 392.400,233.600 392.580,233.600 392.800 C 233.600 393.020,233.870 393.200,234.200 393.200 C 234.530 393.200,234.800 393.380,234.800 393.600 C 234.800 393.820,235.160 394.000,235.600 394.000 C 236.040 394.000,236.401 394.135,236.403 394.300 C 236.407 394.659,238.344 395.600,239.080 395.600 C 239.366 395.600,239.600 395.780,239.600 396.000 C 239.600 396.220,239.960 396.400,240.400 396.400 C 240.840 396.400,241.200 396.580,241.200 396.800 C 241.200 397.020,241.560 397.200,242.000 397.200 C 242.440 397.200,242.800 397.380,242.800 397.600 C 242.800 397.820,243.250 398.000,243.800 398.000 C 244.350 398.000,244.800 398.180,244.800 398.400 C 244.800 398.620,245.394 398.800,246.120 398.800 C 246.846 398.800,247.665 399.025,247.940 399.300 C 248.335 399.695,260.605 399.800,306.600 399.800 C 352.595 399.800,364.865 399.695,365.260 399.300 C 365.535 399.025,366.354 398.800,367.080 398.800 C 367.806 398.800,368.400 398.620,368.400 398.400 C 368.400 398.180,368.940 398.000,369.600 398.000 C 370.260 398.000,370.800 397.820,370.800 397.600 C 370.800 397.380,371.160 397.200,371.600 397.200 C 372.040 397.200,372.400 397.020,372.400 396.800 C 372.400 396.580,372.850 396.400,373.400 396.400 C 373.950 396.400,374.400 396.220,374.400 396.000 C 374.400 395.780,374.720 395.600,375.112 395.600 C 375.503 395.600,376.083 395.240,376.400 394.800 C 376.717 394.360,377.297 394.000,377.688 394.000 C 378.080 394.000,378.400 393.820,378.400 393.600 C 378.400 393.380,378.694 393.200,379.053 393.200 C 379.412 393.200,379.997 392.867,380.353 392.459 C 380.709 392.052,381.579 391.420,382.286 391.056 C 383.952 390.198,390.198 383.952,391.056 382.286 C 391.420 381.579,392.052 380.709,392.459 380.353 C 392.867 379.997,393.200 379.412,393.200 379.053 C 393.200 378.694,393.380 378.400,393.600 378.400 C 393.820 378.400,394.000 378.080,394.000 377.688 C 394.000 377.297,394.360 376.717,394.800 376.400 C 395.240 376.083,395.600 375.514,395.600 375.135 C 395.600 374.757,395.780 374.336,396.000 374.200 C 396.220 374.064,396.400 373.603,396.400 373.176 C 396.400 372.749,396.580 372.400,396.800 372.400 C 397.020 372.400,397.200 372.040,397.200 371.600 C 397.200 371.160,397.380 370.800,397.600 370.800 C 397.820 370.800,398.000 370.260,398.000 369.600 C 398.000 368.940,398.180 368.400,398.400 368.400 C 398.620 368.400,398.800 367.806,398.800 367.080 C 398.800 366.354,399.025 365.535,399.300 365.260 C 399.695 364.865,399.800 352.595,399.800 306.600 C 399.800 260.605,399.695 248.335,399.300 247.940 C 399.025 247.665,398.800 246.846,398.800 246.120 C 398.800 245.394,398.620 244.800,398.400 244.800 C 398.180 244.800,398.000 244.350,398.000 243.800 C 398.000 243.250,397.820 242.800,397.600 242.800 C 397.380 242.800,397.200 242.440,397.200 242.000 C 397.200 241.560,397.020 241.200,396.800 241.200 C 396.580 241.200,396.400 240.851,396.400 240.424 C 396.400 239.997,396.220 239.536,396.000 239.400 C 395.780 239.264,395.600 238.837,395.600 238.452 C 395.600 238.066,395.240 237.364,394.800 236.892 C 394.360 236.420,394.000 235.756,394.000 235.417 C 394.000 235.078,393.820 234.800,393.600 234.800 C 393.380 234.800,393.200 234.564,393.200 234.275 C 393.200 233.987,392.859 233.385,392.443 232.938 C 392.026 232.491,391.410 231.593,391.075 230.944 C 390.739 230.295,389.354 228.692,387.997 227.382 C 386.640 226.072,384.921 224.415,384.178 223.700 C 383.435 222.985,382.639 222.400,382.410 222.400 C 382.180 222.400,381.428 221.860,380.737 221.200 C 380.046 220.540,379.238 220.000,378.941 220.000 C 378.643 220.000,378.400 219.820,378.400 219.600 C 378.400 219.380,378.040 219.200,377.600 219.200 C 377.160 219.200,376.800 219.054,376.800 218.875 C 376.800 218.696,376.170 218.302,375.400 218.000 C 374.630 217.698,374.000 217.304,374.000 217.125 C 374.000 216.946,373.640 216.800,373.200 216.800 C 372.760 216.800,372.400 216.620,372.400 216.400 C 372.400 216.180,372.051 216.000,371.624 216.000 C 371.197 216.000,370.736 215.820,370.600 215.600 C 370.464 215.380,369.913 215.200,369.376 215.200 C 368.839 215.200,368.400 215.020,368.400 214.800 C 368.400 214.580,367.680 214.400,366.800 214.400 C 365.920 214.400,365.200 214.220,365.200 214.000 C 365.200 213.780,364.480 213.600,363.600 213.600 C 362.720 213.600,362.000 213.420,362.000 213.200 C 362.000 212.935,343.341 212.800,306.824 212.800 C 270.471 212.800,251.563 212.936,251.400 213.200 M144.354 226.829 C 155.862 228.694,165.126 235.336,169.836 245.097 C 173.773 253.257,173.583 250.138,173.592 306.776 C 173.600 357.479,173.596 357.632,171.928 363.150 C 169.154 372.327,162.420 379.910,153.447 383.963 C 151.126 385.011,149.890 385.387,145.523 386.375 C 141.365 387.316,43.268 386.928,39.271 385.955 C 26.049 382.736,16.607 372.929,13.807 359.505 C 13.284 357.000,13.201 349.718,13.201 306.600 C 13.201 253.072,13.183 253.572,15.196 248.600 C 20.054 236.602,28.555 229.549,41.200 227.027 C 44.625 226.343,140.228 226.160,144.354 226.829 M361.375 227.720 C 375.745 232.010,384.431 242.108,386.358 256.764 C 386.956 261.317,386.972 351.517,386.375 356.600 C 385.746 361.960,384.484 365.689,381.570 370.800 C 377.214 378.441,367.824 384.584,358.000 386.220 C 352.996 387.053,260.252 387.058,255.200 386.225 C 242.118 384.069,232.720 375.985,228.101 362.915 L 227.000 359.800 226.887 308.600 C 226.812 274.365,226.913 256.500,227.193 254.684 C 229.360 240.635,240.785 229.366,255.200 227.059 C 259.107 226.434,359.153 227.057,361.375 227.720 " stroke="none" fill="#040404" fill-rule="evenodd"></path></g></svg>