<?xml version="1.0" standalone="no"?>
<!DOCTYPE svg PUBLIC "-//W3C//DTD SVG 20010904//EN"
 "http://www.w3.org/TR/2001/REC-SVG-20010904/DTD/svg10.dtd">
<svg version="1.0" xmlns="http://www.w3.org/2000/svg"
 width="512.000000pt" height="512.000000pt" viewBox="0 0 512.000000 512.000000"
 preserveAspectRatio="xMidYMid meet">

<g transform="translate(0.000000,512.000000) scale(0.100000,-0.100000)"
fill="#000000" stroke="none">
<path d="M1542 4795 c-228 -50 -420 -240 -484 -479 -92 -350 148 -816 732
-1420 180 -186 284 -276 320 -276 24 0 52 21 157 123 l127 123 208 -212 c115
-117 221 -217 236 -222 17 -6 37 -6 52 0 31 11 369 350 471 473 223 266 366
505 420 700 69 249 -22 508 -228 648 -100 69 -166 90 -299 95 l-110 4 -17 49
c-26 71 -110 191 -175 249 -122 108 -293 168 -451 157 -127 -9 -226 -47 -336
-130 l-58 -44 -65 49 c-148 113 -321 152 -500 113z m267 -144 c77 -24 141 -65
211 -136 75 -76 98 -76 176 6 42 43 82 72 141 101 72 36 92 41 170 45 151 9
279 -42 383 -154 139 -148 177 -324 118 -536 -73 -264 -346 -646 -757 -1056
l-143 -143 -155 153 c-330 329 -549 611 -674 864 -73 151 -99 243 -99 355 0
153 46 266 150 370 71 71 138 112 221 134 77 21 186 20 258 -3z m1512 -445
c87 -19 134 -43 203 -106 66 -61 121 -163 137 -258 42 -237 -141 -568 -566
-1026 -67 -72 -147 -152 -177 -178 l-56 -48 -67 63 c-89 80 -297 307 -293 317
2 5 44 55 94 112 283 322 465 605 537 834 29 90 51 235 43 270 -5 18 -1 24 16
27 42 8 63 7 129 -7z"/>
<path d="M3470 2464 c-102 -20 -156 -50 -460 -259 l-312 -214 -51 20 c-29 11
-113 55 -187 98 -202 116 -316 176 -404 211 -256 103 -536 117 -776 40 -100
-32 -256 -112 -344 -175 -43 -31 -79 -55 -81 -53 -2 2 -21 27 -43 56 -54 72
-130 127 -209 152 -55 17 -93 20 -244 20 -166 0 -180 -1 -199 -20 -20 -20 -20
-33 -20 -1005 0 -972 0 -985 20 -1005 18 -18 33 -20 193 -20 186 1 234 8 312
46 78 39 174 144 201 222 0 1 145 61 322 132 334 135 377 147 446 120 14 -5
144 -85 288 -177 414 -263 504 -297 773 -297 135 0 173 3 245 23 172 46 250
93 785 476 963 689 1120 804 1157 842 20 21 50 65 65 98 24 53 28 72 28 155 0
82 -4 103 -26 150 -39 82 -99 144 -177 182 -61 30 -74 33 -162 33 -77 0 -104
-4 -146 -23 l-51 -23 -51 35 c-87 58 -154 79 -272 83 -84 4 -117 1 -166 -15
l-61 -19 -64 39 c-35 21 -86 45 -114 54 -53 16 -172 26 -215 18z m171 -150
c108 -32 119 -20 -213 -238 l-301 -197 -111 27 c-61 15 -117 30 -125 34 -18
10 478 349 544 372 63 22 136 23 206 2z m-1860 -60 c179 -34 307 -89 604 -262
182 -105 272 -139 545 -208 124 -31 246 -67 271 -80 144 -72 183 -243 82 -355
-69 -76 -120 -90 -285 -77 -282 21 -520 95 -654 204 -80 65 -99 72 -132 47
-18 -13 -28 -31 -30 -53 -3 -28 3 -39 48 -80 164 -151 489 -252 820 -254 148
-1 158 0 212 26 105 49 186 154 210 273 l10 53 504 332 c277 182 519 337 539
345 47 20 132 18 181 -4 47 -22 109 -89 125 -139 6 -19 9 -60 7 -92 -8 -118
24 -90 -863 -726 -463 -332 -836 -592 -886 -618 -139 -73 -217 -91 -394 -91
-249 0 -304 22 -714 285 -140 89 -280 172 -310 182 -44 16 -73 19 -131 15 -67
-4 -105 -17 -350 -117 -151 -61 -281 -114 -287 -117 -10 -4 -13 123 -13 614
l0 619 68 52 c266 202 545 279 823 226z m2424 -25 c104 -39 127 -16 -329 -316
-227 -150 -416 -273 -418 -273 -3 0 -22 25 -42 56 -20 30 -57 69 -82 87 -35
24 -42 34 -32 43 18 17 556 367 598 389 87 46 205 52 305 14z m-3590 -44 c57
-35 110 -100 125 -153 6 -24 10 -273 10 -698 0 -751 3 -722 -80 -804 -64 -65
-114 -80 -267 -80 l-123 0 0 886 0 886 143 -4 c140 -3 145 -4 192 -33z"/>
</g>
</svg>
