<?xml version="1.0" standalone="no"?>
<!DOCTYPE svg PUBLIC "-//W3C//DTD SVG 20010904//EN"
 "http://www.w3.org/TR/2001/REC-SVG-20010904/DTD/svg10.dtd">
<svg version="1.0" xmlns="http://www.w3.org/2000/svg"
 width="512.000000pt" height="512.000000pt" viewBox="0 0 512.000000 512.000000"
 preserveAspectRatio="xMidYMid meet">

<g transform="translate(0.000000,512.000000) scale(0.100000,-0.100000)"
fill="#000000" stroke="none">
<path d="M4336 4664 c-206 -50 -396 -239 -450 -450 -20 -79 -21 -232 -1 -309
23 -91 78 -194 139 -262 31 -33 56 -64 56 -68 0 -3 -131 -256 -292 -561 l-292
-554 -35 7 c-20 5 -83 8 -141 8 -119 0 -215 -25 -296 -77 -25 -16 -50 -28 -54
-26 -4 2 -105 91 -224 198 -143 128 -215 200 -212 210 2 8 17 49 32 90 32 90
43 235 25 332 -15 78 -77 208 -129 270 -88 105 -203 180 -330 214 -78 20 -231
20 -312 -1 -217 -56 -403 -246 -454 -465 -42 -177 0 -369 113 -519 22 -30 37
-59 34 -65 -5 -9 -652 -976 -658 -983 -1 -2 -39 7 -85 18 -207 53 -428 -11
-584 -167 -112 -112 -172 -245 -183 -405 -20 -292 185 -571 472 -644 75 -19
221 -19 303 0 212 50 401 236 456 451 20 78 21 231 1 309 -19 75 -75 187 -119
240 l-34 40 330 492 c181 271 332 495 336 497 4 2 32 -2 62 -10 152 -40 304
-25 448 46 l83 41 37 -32 c225 -197 403 -365 398 -379 -2 -8 -17 -46 -32 -85
-32 -85 -44 -239 -25 -337 44 -226 238 -426 471 -484 95 -24 251 -15 348 19
304 107 481 433 402 741 -25 100 -78 200 -145 273 l-52 58 292 555 293 555 38
-5 c98 -13 239 -5 309 17 194 61 356 222 416 413 105 337 -103 708 -446 795
-74 19 -230 18 -309 -1z m311 -294 c69 -34 129 -96 165 -168 19 -40 23 -63 23
-147 0 -90 -3 -105 -28 -153 -36 -68 -92 -124 -159 -158 -75 -39 -199 -45
-280 -14 -163 61 -260 251 -214 416 62 216 294 322 493 224z m-2524 -975 c31
-14 76 -46 101 -71 168 -171 122 -449 -94 -560 -49 -26 -65 -29 -150 -29 -82
0 -103 4 -151 26 -70 33 -130 91 -165 161 -39 75 -45 199 -14 280 70 187 294
278 473 193z m1365 -1226 c61 -30 132 -101 161 -164 32 -67 40 -192 17 -261
-33 -99 -133 -198 -229 -226 -23 -7 -73 -12 -112 -12 -130 0 -254 83 -311 208
-40 86 -40 196 -2 278 85 183 298 263 476 177z m-2734 -780 c77 -28 148 -96
188 -177 29 -59 33 -75 32 -147 -1 -91 -19 -149 -66 -210 -73 -95 -160 -138
-283 -139 -72 -1 -88 3 -147 32 -74 36 -133 96 -170 170 -19 40 -23 63 -23
147 0 86 3 106 24 145 51 97 113 151 209 186 58 21 172 17 236 -7z"/>
</g>
</svg>
