<?xml version="1.0" standalone="no"?>
<!DOCTYPE svg PUBLIC "-//W3C//DTD SVG 20010904//EN"
 "http://www.w3.org/TR/2001/REC-SVG-20010904/DTD/svg10.dtd">
<svg version="1.0" xmlns="http://www.w3.org/2000/svg"
 width="512.000000pt" height="512.000000pt" viewBox="0 0 512.000000 512.000000"
 preserveAspectRatio="xMidYMid meet">

<g transform="translate(0.000000,512.000000) scale(0.100000,-0.100000)"
fill="#000000" stroke="none">
<path d="M900 5105 c-155 -44 -279 -181 -325 -360 -22 -86 -20 -234 5 -324 78
-279 359 -571 715 -743 151 -73 164 -72 336 14 361 182 645 497 700 778 17 85
7 240 -20 319 -123 358 -504 437 -807 168 l-54 -49 -51 46 c-65 58 -152 111
-226 137 -77 27 -202 34 -273 14z m208 -150 c65 -20 181 -98 252 -169 79 -81
98 -79 206 24 193 182 376 209 509 76 134 -135 154 -353 49 -546 -111 -203
-318 -391 -566 -516 -48 -24 -97 -44 -108 -44 -11 0 -62 21 -113 46 -303 152
-545 404 -612 638 -23 80 -17 219 14 298 35 91 119 174 201 199 42 12 113 10
168 -6z"/>
<path d="M3732 4332 c-75 -27 -122 -69 -160 -143 -83 -162 -40 -335 126 -511
97 -102 286 -218 356 -218 58 0 225 95 325 185 67 61 144 170 172 244 32 85
30 199 -5 277 -62 135 -179 201 -308 175 -46 -10 -113 -43 -169 -83 -13 -9
-23 -6 -52 16 -83 63 -201 87 -285 58z m162 -159 c16 -8 50 -34 75 -58 75 -70
97 -69 181 10 62 57 126 81 174 65 47 -15 82 -59 95 -119 13 -63 6 -101 -32
-174 -49 -94 -150 -187 -281 -258 l-50 -27 -50 25 c-221 111 -362 310 -316
447 14 43 55 94 84 107 26 10 80 2 120 -18z"/>
<path d="M273 3598 c-30 -14 -47 -58 -34 -89 5 -13 170 -184 365 -379 l356
-355 0 -802 c0 -790 0 -803 20 -823 11 -11 33 -20 50 -20 17 0 278 110 616
259 l587 260 108 -100 c83 -76 115 -99 136 -99 30 0 1103 635 1135 672 39 45
4 118 -56 118 -19 0 -196 -101 -538 -306 -281 -169 -516 -307 -523 -308 -8 0
-224 195 -483 434 l-469 435 56 7 c31 4 380 24 776 43 396 20 963 49 1260 65
297 15 541 26 543 25 2 -2 -80 -53 -182 -114 -185 -111 -216 -137 -216 -176 1
-40 54 -81 91 -70 26 8 647 381 671 402 23 21 23 75 1 102 -18 21 -391 94
-3668 722 -116 22 -290 56 -389 75 -200 38 -183 36 -213 22z m1789 -480 c813
-155 1473 -285 1466 -287 -6 -2 -563 9 -1237 24 l-1226 28 -265 264 c-185 185
-257 264 -240 260 14 -3 690 -133 1502 -289z m-372 -398 c754 -16 762 -19 156
-51 -514 -27 -519 -27 -541 -51 -19 -18 -39 -91 -104 -373 -45 -192 -84 -354
-86 -360 -2 -5 -4 182 -4 418 l-1 427 48 0 c26 0 265 -4 532 -10z m167 -721
c132 -123 243 -228 245 -233 2 -7 -952 -437 -959 -432 -2 2 245 1055 252 1075
3 8 42 -21 113 -87 59 -55 216 -200 349 -323z"/>
<path d="M3500 1637 c-279 -95 -404 -467 -260 -776 119 -254 360 -484 661
-631 160 -78 163 -79 258 -40 311 125 619 400 741 661 46 101 64 182 63 294
-1 217 -106 395 -281 478 -63 30 -74 32 -177 31 -90 0 -121 -4 -168 -23 -67
-26 -189 -105 -231 -150 l-29 -30 -51 43 c-177 150 -360 200 -526 143z m245
-146 c71 -25 145 -75 230 -156 93 -88 101 -87 211 15 236 219 467 214 579 -13
67 -137 66 -276 -4 -422 -78 -164 -228 -328 -411 -450 -94 -63 -251 -145 -277
-145 -19 0 -180 81 -250 126 -297 189 -493 464 -493 689 0 153 81 298 195 351
62 30 145 31 220 5z"/>
<path d="M359 876 c-117 -41 -185 -133 -203 -271 -20 -147 83 -337 250 -464
79 -59 235 -141 269 -141 38 0 216 95 286 154 88 72 154 154 198 246 33 69 36
82 36 165 0 82 -3 97 -33 157 -52 105 -144 168 -247 168 -51 0 -130 -28 -185
-65 l-52 -35 -52 34 c-94 62 -188 80 -267 52z m146 -155 c22 -10 63 -39 91
-65 71 -63 96 -62 170 5 89 80 148 97 209 59 36 -22 75 -99 75 -148 0 -126
-132 -289 -315 -387 l-55 -30 -78 39 c-101 52 -230 177 -269 262 -45 97 -34
194 29 250 42 39 82 43 143 15z"/>
</g>
</svg>
