<?xml version="1.0" standalone="no"?>
<!DOCTYPE svg PUBLIC "-//W3C//DTD SVG 20010904//EN"
 "http://www.w3.org/TR/2001/REC-SVG-20010904/DTD/svg10.dtd">
<svg version="1.0" xmlns="http://www.w3.org/2000/svg"
 width="512.000000pt" height="512.000000pt" viewBox="0 0 512.000000 512.000000"
 preserveAspectRatio="xMidYMid meet">

<g transform="translate(0.000000,512.000000) scale(0.100000,-0.100000)"
fill="#000000" stroke="none">
<path d="M2430 5114 c-130 -15 -207 -28 -290 -49 -527 -133 -972 -528 -1166
-1037 -78 -206 -108 -377 -108 -623 0 -208 12 -301 65 -483 97 -341 256 -596
817 -1312 106 -134 192 -247 192 -250 0 -4 -55 -16 -122 -29 -388 -70 -677
-197 -839 -367 -101 -108 -136 -221 -105 -344 58 -224 336 -407 791 -519 296
-72 509 -95 895 -95 228 0 342 4 450 17 526 63 903 195 1102 384 75 72 113
133 134 213 72 282 -218 534 -773 674 -54 14 -142 33 -195 42 -54 9 -98 20
-98 23 0 3 100 134 223 291 386 495 517 682 633 904 109 209 164 366 200 571
22 121 25 419 5 540 -60 374 -221 693 -482 954 -258 259 -566 417 -929 477
-86 15 -336 26 -400 18z m288 -205 c127 -13 256 -44 367 -86 656 -250 1053
-912 961 -1603 -56 -420 -209 -692 -845 -1505 -108 -137 -294 -380 -414 -540
-120 -159 -223 -290 -227 -290 -5 0 -98 119 -207 265 -109 146 -297 391 -417
544 -503 642 -656 870 -760 1130 -97 241 -134 503 -106 751 23 199 62 331 151
510 278 563 875 892 1497 824z m-495 -3916 c73 -98 163 -221 200 -274 82 -116
123 -140 184 -106 12 7 78 89 145 182 192 264 278 375 291 375 7 0 66 -9 132
-20 257 -41 437 -95 615 -183 146 -72 239 -152 261 -225 41 -139 -133 -285
-475 -397 -584 -192 -1448 -192 -2032 0 -205 67 -340 140 -421 228 -87 95 -81
172 21 272 104 102 333 204 595 265 97 23 289 57 329 59 18 1 49 -35 155 -176z"/>
<path d="M2521 4707 c-95 -55 -40 -206 67 -182 73 16 103 109 51 160 -30 31
-85 41 -118 22z"/>
<path d="M2923 4640 c-56 -23 -74 -114 -31 -155 12 -13 57 -37 98 -54 185 -76
376 -236 489 -411 106 -164 162 -332 179 -539 8 -102 11 -115 36 -139 37 -37
96 -37 134 1 26 27 27 31 26 135 -3 295 -134 604 -353 834 -111 118 -219 197
-366 269 -125 62 -174 75 -212 59z"/>
<path d="M2415 4104 c-38 -8 -113 -36 -165 -61 -79 -38 -108 -59 -181 -132
-73 -73 -94 -102 -132 -181 -102 -211 -102 -409 0 -620 39 -81 58 -108 133
-182 72 -72 103 -94 181 -131 210 -102 408 -102 619 0 80 38 109 59 181 132
73 72 94 101 132 181 102 211 102 409 0 620 -39 81 -58 108 -133 182 -72 72
-103 94 -181 131 -152 74 -299 93 -454 61z m260 -200 c94 -24 164 -64 232
-131 199 -198 203 -498 8 -699 -196 -201 -503 -204 -702 -7 -200 199 -203 498
-6 699 126 129 304 181 468 138z"/>
</g>
</svg>
