<?xml version="1.0" standalone="no"?>
<!DOCTYPE svg PUBLIC "-//W3C//DTD SVG 20010904//EN"
 "http://www.w3.org/TR/2001/REC-SVG-20010904/DTD/svg10.dtd">
<svg version="1.0" xmlns="http://www.w3.org/2000/svg"
 width="512.000000pt" height="512.000000pt" viewBox="0 0 512.000000 512.000000"
 preserveAspectRatio="xMidYMid meet">

<g transform="translate(0.000000,512.000000) scale(0.100000,-0.100000)"
fill="#000000" stroke="none">
<path d="M1320 5110 c-645 -67 -1154 -525 -1292 -1163 -31 -147 -31 -427 0
-574 39 -181 110 -354 208 -505 45 -70 71 -86 118 -74 20 5 32 -3 70 -49 41
-47 46 -57 36 -76 -7 -11 -9 -31 -6 -44 7 -27 88 -102 171 -158 33 -22 62 -41
64 -43 2 -2 -24 -39 -57 -84 -144 -191 -236 -400 -279 -633 -23 -125 -23 -370
1 -497 20 -115 82 -302 129 -396 330 -653 1085 -965 1772 -732 210 71 396 188
560 353 247 246 396 564 421 899 6 80 9 86 26 80 140 -44 410 -65 574 -44 182
22 418 96 457 141 23 29 22 74 -4 100 -27 27 -62 23 -194 -24 -161 -57 -247
-72 -430 -71 -180 1 -301 21 -447 75 -629 231 -982 904 -813 1553 171 660 833
1077 1508 950 88 -17 256 -73 331 -111 369 -186 635 -544 707 -953 21 -118 16
-355 -10 -477 -64 -305 -213 -546 -473 -769 -39 -32 -48 -47 -48 -72 0 -41 31
-72 72 -72 88 0 360 296 469 511 174 345 205 741 87 1108 -173 542 -647 932
-1218 1001 -295 35 -622 -31 -881 -180 l-84 -48 -31 92 c-43 124 -65 173 -128
280 -212 358 -568 606 -979 685 -125 24 -293 32 -407 21z m685 -2365 c48 -9
113 -23 146 -32 56 -15 59 -18 64 -52 32 -212 79 -363 161 -521 136 -261 377
-498 637 -626 l77 -38 0 -66 c0 -160 -60 -383 -147 -552 -184 -358 -531 -613
-928 -683 -115 -20 -332 -21 -447 0 -409 72 -762 334 -943 700 -100 202 -137
359 -137 580 -1 248 56 461 180 670 191 323 522 551 897 619 108 19 331 20
440 1z"/>
<path d="M1187 1881 c-119 -78 -145 -344 -46 -480 117 -162 292 -8 277 243 -7
100 -36 173 -89 221 -45 41 -96 47 -142 16z"/>
<path d="M2263 1881 c-64 -40 -105 -145 -105 -269 1 -92 25 -170 69 -221 72
-85 158 -74 219 28 80 132 66 336 -31 437 -35 37 -48 44 -81 44 -21 0 -53 -9
-71 -19z"/>
<path d="M1122 1107 c-29 -31 -28 -72 3 -102 l24 -25 635 0 c349 0 642 3 651
6 18 7 45 55 45 79 0 9 -11 27 -25 40 l-24 25 -644 0 -644 0 -21 -23z"/>
<path d="M3095 3230 c-99 -41 -153 -236 -107 -386 55 -178 185 -214 269 -75
119 198 3 530 -162 461z"/>
<path d="M4133 3220 c-106 -64 -143 -273 -76 -422 44 -99 110 -136 180 -101
162 79 159 448 -4 532 -32 16 -64 13 -100 -9z"/>
<path d="M3083 2478 c-34 -16 -48 -61 -32 -100 43 -109 161 -244 272 -311 104
-63 203 -90 332 -90 200 -1 335 53 476 193 67 66 95 102 125 163 36 74 37 81
23 105 -8 15 -27 33 -42 42 -24 13 -30 13 -54 0 -16 -9 -43 -44 -63 -80 -67
-123 -190 -220 -321 -255 -63 -17 -194 -19 -259 -4 -128 29 -266 137 -328 256
-45 86 -77 106 -129 81z"/>
</g>
</svg>
