<?xml version="1.0" standalone="no"?>
<!DOCTYPE svg PUBLIC "-//W3C//DTD SVG 20010904//EN"
 "http://www.w3.org/TR/2001/REC-SVG-20010904/DTD/svg10.dtd">
<svg version="1.0" xmlns="http://www.w3.org/2000/svg"
 width="512.000000pt" height="512.000000pt" viewBox="0 0 512.000000 512.000000"
 preserveAspectRatio="xMidYMid meet">

<g transform="translate(0.000000,512.000000) scale(0.100000,-0.100000)"
fill="#000000" stroke="none">
<path d="M2213 4960 c-52 -31 -62 -57 -79 -201 -21 -187 -17 -176 -66 -184
-125 -21 -420 -142 -574 -234 l-51 -31 -89 71 c-159 128 -193 144 -261 119
-37 -14 -451 -426 -469 -467 -31 -71 -19 -98 107 -255 l80 -98 -42 -72 c-93
-160 -206 -439 -225 -557 -8 -48 4 -44 -182 -65 -144 -16 -170 -26 -202 -79
-19 -30 -20 -52 -20 -347 0 -412 -6 -400 221 -426 185 -20 175 -17 183 -65 19
-118 143 -422 235 -575 l31 -51 -81 -102 c-124 -158 -134 -180 -109 -248 14
-37 426 -451 467 -469 71 -31 98 -19 255 107 l98 80 72 -42 c160 -94 431 -203
556 -224 49 -8 45 4 66 -183 16 -144 26 -170 79 -202 30 -19 52 -20 347 -20
412 0 400 -6 426 221 21 187 17 175 65 183 117 19 418 141 576 235 l51 30 102
-80 c160 -126 182 -136 253 -105 41 18 453 432 467 469 25 68 13 95 -111 249
l-80 98 42 72 c93 160 206 439 225 557 8 48 -4 44 182 65 144 16 170 26 202
79 19 30 20 52 20 347 0 412 6 400 -222 426 -187 21 -175 17 -183 66 -20 122
-142 420 -234 574 l-31 51 81 102 c126 161 136 183 105 254 -18 41 -432 453
-469 467 -68 25 -95 13 -249 -112 l-98 -79 -60 36 c-145 88 -450 212 -569 231
-48 8 -44 -4 -65 182 -16 144 -26 170 -79 202 -30 19 -52 20 -347 20 -295 0
-317 -1 -347 -20z m627 -132 c1 -73 41 -333 53 -345 7 -8 66 -27 131 -43 202
-51 379 -126 565 -239 60 -36 91 -49 105 -45 12 4 80 53 151 110 l130 104 197
-197 c120 -120 194 -201 189 -207 -4 -6 -52 -66 -106 -134 -111 -140 -116
-154 -67 -224 96 -139 195 -367 247 -570 19 -72 41 -138 49 -146 9 -9 70 -21
177 -33 90 -10 167 -19 172 -19 4 0 7 -126 7 -280 0 -154 -3 -280 -7 -280 -5
0 -82 -9 -172 -19 -107 -12 -168 -24 -177 -33 -8 -8 -30 -73 -48 -144 -54
-206 -114 -348 -230 -545 -39 -65 -54 -99 -50 -114 4 -11 53 -78 110 -150
l104 -130 -197 -197 c-169 -169 -199 -196 -213 -185 -93 78 -249 196 -266 201
-14 4 -45 -9 -105 -45 -186 -113 -363 -188 -565 -239 -65 -16 -124 -35 -131
-43 -12 -12 -52 -272 -53 -344 0 -10 -63 -13 -280 -13 -154 0 -280 3 -280 8 0
4 -9 81 -19 171 -12 107 -24 168 -33 177 -8 8 -74 30 -146 49 -201 52 -350
115 -543 229 -65 39 -100 54 -114 50 -11 -4 -74 -49 -140 -102 -66 -52 -125
-99 -131 -103 -6 -5 -87 69 -207 189 l-197 197 106 133 c69 86 107 141 107
157 -1 13 -25 66 -56 117 -112 189 -176 343 -227 544 -16 65 -35 124 -43 131
-12 13 -262 51 -339 53 -17 0 -18 20 -18 280 0 260 1 280 18 280 77 2 327 40
339 53 8 7 27 66 43 131 51 201 124 376 232 553 28 46 51 94 51 107 0 17 -36
70 -107 158 l-106 133 197 197 c120 120 201 194 207 189 6 -4 66 -52 134 -106
140 -111 154 -116 224 -67 139 96 367 195 570 247 72 19 138 41 146 49 9 9 21
70 33 177 10 90 19 167 19 172 0 4 126 7 280 7 217 0 280 -3 280 -12z"/>
<path d="M2357 3999 c-599 -88 -1074 -527 -1215 -1123 -24 -100 -26 -131 -27
-311 0 -156 4 -218 18 -284 113 -526 479 -939 974 -1100 133 -44 240 -62 394
-68 222 -9 421 25 616 107 523 218 867 711 890 1271 6 140 5 147 -16 168 -30
30 -74 28 -100 -5 -18 -23 -21 -41 -21 -129 0 -127 -21 -250 -65 -382 -31 -93
-84 -211 -107 -240 -7 -9 -36 14 -107 85 -53 53 -137 126 -186 161 -143 101
-363 203 -490 227 -19 3 -35 7 -35 8 0 1 27 29 59 62 280 289 143 777 -246
878 -211 55 -435 -26 -560 -202 -151 -211 -131 -485 49 -677 42 -45 55 -65 43
-65 -35 0 -226 -70 -321 -118 -136 -68 -260 -159 -375 -274 -71 -71 -100 -94
-107 -85 -23 29 -76 147 -107 240 -47 141 -65 255 -65 416 0 224 38 388 136
586 215 436 672 725 1147 725 139 0 167 13 167 77 0 54 -26 63 -165 62 -66 -1
-146 -5 -178 -10z m364 -831 c248 -114 306 -438 112 -631 -191 -191 -504 -135
-626 113 -29 59 -32 73 -32 160 1 117 25 186 92 260 86 95 173 131 308 127 72
-2 102 -8 146 -29z m149 -923 c250 -62 473 -193 649 -382 45 -47 81 -92 81
-99 0 -7 -39 -54 -87 -104 -258 -271 -581 -410 -953 -410 -271 0 -507 71 -735
222 -88 58 -305 266 -305 292 0 25 205 225 291 283 142 97 299 166 460 202
133 29 136 30 324 26 143 -3 187 -8 275 -30z"/>
<path d="M3132 3870 c-28 -12 -46 -51 -38 -84 4 -18 22 -34 59 -52 28 -15 76
-42 105 -60 76 -49 128 -43 147 17 13 39 -23 73 -155 147 -68 37 -89 43 -118
32z"/>
<path d="M3637 3412 c-28 -31 -20 -66 38 -157 30 -48 57 -95 60 -105 3 -10 20
-24 37 -31 46 -19 82 4 86 54 3 31 -6 54 -44 119 -67 115 -89 138 -128 138
-19 0 -40 -8 -49 -18z"/>
</g>
</svg>
